<svg width="28" height="27" viewBox="0 0 28 27" fill="none" xmlns="http://www.w3.org/2000/svg">
<path d="M14 0.0827637C17.6227 0.0827637 18.0747 0.0960969 19.496 0.162764C20.916 0.22943 21.8827 0.452097 22.7333 0.782764C23.6133 1.12143 24.3547 1.5801 25.096 2.3201C25.774 2.98662 26.2986 3.79288 26.6333 4.68276C26.9627 5.5321 27.1867 6.5001 27.2533 7.9201C27.316 9.34143 27.3333 9.79343 27.3333 13.4161C27.3333 17.0388 27.32 17.4908 27.2533 18.9121C27.1867 20.3321 26.9627 21.2988 26.6333 22.1494C26.2996 23.0398 25.7748 23.8463 25.096 24.5121C24.4293 25.1899 23.6231 25.7144 22.7333 26.0494C21.884 26.3788 20.916 26.6028 19.496 26.6694C18.0747 26.7321 17.6227 26.7494 14 26.7494C10.3773 26.7494 9.92533 26.7361 8.504 26.6694C7.084 26.6028 6.11733 26.3788 5.26666 26.0494C4.37643 25.7154 3.57003 25.1907 2.904 24.5121C2.22587 23.8457 1.70124 23.0394 1.36666 22.1494C1.036 21.3001 0.813331 20.3321 0.746664 18.9121C0.683997 17.4908 0.666664 17.0388 0.666664 13.4161C0.666664 9.79343 0.679997 9.34143 0.746664 7.9201C0.813331 6.49876 1.036 5.53343 1.36666 4.68276C1.70031 3.79234 2.22507 2.98586 2.904 2.3201C3.57023 1.64174 4.37657 1.11707 5.26666 0.782764C6.11733 0.452097 7.08266 0.22943 8.504 0.162764C9.92533 0.100097 10.3773 0.0827637 14 0.0827637ZM14 6.74943C12.2319 6.74943 10.5362 7.45181 9.28595 8.70205C8.03571 9.95229 7.33333 11.648 7.33333 13.4161C7.33333 15.1842 8.03571 16.8799 9.28595 18.1301C10.5362 19.3804 12.2319 20.0828 14 20.0828C15.7681 20.0828 17.4638 19.3804 18.714 18.1301C19.9643 16.8799 20.6667 15.1842 20.6667 13.4161C20.6667 11.648 19.9643 9.95229 18.714 8.70205C17.4638 7.45181 15.7681 6.74943 14 6.74943ZM22.6667 6.4161C22.6667 5.97407 22.4911 5.55015 22.1785 5.23759C21.8659 4.92502 21.442 4.74943 21 4.74943C20.558 4.74943 20.134 4.92502 19.8215 5.23759C19.5089 5.55015 19.3333 5.97407 19.3333 6.4161C19.3333 6.85812 19.5089 7.28205 19.8215 7.59461C20.134 7.90717 20.558 8.08276 21 8.08276C21.442 8.08276 21.8659 7.90717 22.1785 7.59461C22.4911 7.28205 22.6667 6.85812 22.6667 6.4161ZM14 9.4161C15.0609 9.4161 16.0783 9.83752 16.8284 10.5877C17.5786 11.3378 18 12.3552 18 13.4161C18 14.477 17.5786 15.4944 16.8284 16.2445C16.0783 16.9947 15.0609 17.4161 14 17.4161C12.9391 17.4161 11.9217 16.9947 11.1716 16.2445C10.4214 15.4944 10 14.477 10 13.4161C10 12.3552 10.4214 11.3378 11.1716 10.5877C11.9217 9.83752 12.9391 9.4161 14 9.4161Z" fill="#5243C2"/>
</svg>
