<svg width="28" height="23" viewBox="0 0 28 23" fill="none" xmlns="http://www.w3.org/2000/svg">
<path d="M27.5493 2.95725C26.5314 3.40751 25.4519 3.70322 24.3467 3.83458C25.5117 3.13783 26.3836 2.04127 26.8 0.749251C25.7067 1.39992 24.508 1.85592 23.2587 2.10258C22.4195 1.20469 21.3071 0.609202 20.0946 0.408697C18.8821 0.208193 17.6373 0.413906 16.5537 0.993855C15.4701 1.5738 14.6085 2.4955 14.1028 3.61564C13.5971 4.73579 13.4757 5.99162 13.7573 7.18792C11.5401 7.07679 9.37111 6.50062 7.39105 5.4968C5.41099 4.49299 3.66417 3.08398 2.264 1.36125C1.76839 2.21252 1.50794 3.18022 1.50933 4.16525C1.50933 6.09858 2.49333 7.80658 3.98933 8.80659C3.10401 8.77871 2.23818 8.53963 1.464 8.10925V8.17858C1.46427 9.46618 1.90983 10.7141 2.72513 11.7107C3.54043 12.7073 4.67531 13.3912 5.93733 13.6466C5.11549 13.8693 4.25374 13.9021 3.41733 13.7426C3.77316 14.8509 4.46668 15.8202 5.40079 16.5147C6.3349 17.2093 7.46284 17.5943 8.62667 17.6159C7.46997 18.5244 6.14557 19.1959 4.72917 19.5921C3.31278 19.9884 1.83217 20.1016 0.372 19.9253C2.92093 21.5645 5.88813 22.4347 8.91867 22.4319C19.176 22.4319 24.7853 13.9346 24.7853 6.56525C24.7853 6.32525 24.7787 6.08258 24.768 5.84525C25.8598 5.05614 26.8021 4.07861 27.5507 2.95858L27.5493 2.95725Z" fill="#5243C2"/>
</svg>
